<svg xmlns="http://www.w3.org/2000/svg" version="1.1" xmlns:xlink="http://www.w3.org/1999/xlink" xmlns:svgjs="http://svgjs.com/svgjs" width="540" height="508"><svg id="SvgjsSvg1002" width="2" height="0" focusable="false" style="overflow: hidden; top: -100%; left: -100%; position: absolute; opacity: 0"><polyline id="SvgjsPolyline1003" points="0,0"></polyline><path id="SvgjsPath1004" d="M0 0 "></path></svg><defs id="SvgjsDefs1673"></defs><defs id="SvgjsDefs1674"><style>
		  .lo-name path, .lo-name {
			fill: #000000;
		  }
		  .lo-tagline path, .lo-tagline {
			fill: #343a40;
		  }
		  .lo-icon path, .lo-icon {
			fill: #343a40;
		  }
		  .lo-shape path, .lo-shape {
			fill: #5984d6;
		  }
		</style></defs><g id="SvgjsG1675" fill="#5984d6" class="lo-shape"><title>forma</title><g id="Слой_2" data-name="Слой 2"><g id="Слой_1-2" data-name="Слой 1"><g id="_b8584fff" data-name="#b8584fff"><path transform="translate(95, 198) scale(1,1)" d="M.1.11a24.81,24.81,0,0,1,4.72,0c.18,3,0,6,.07,9V96.26c0,2.94.12,5.89-.1,8.83a36.23,36.23,0,0,1-4.66,0C-.1,102.15.05,99.2,0,96.26Q0,52.68,0,9.11C.06,6.11-.09,3.1.1.11Z" /></g></g></g></g><path id="SvgjsPath1676" d="M29.84 0L33.22-3.38L33.22-10.24L26.41-10.24L26.41-6.86L9.31-6.86L9.31-27.44L26.41-27.44L26.41-24.01L33.22-24.01L33.22-30.82L29.84-34.30L5.83-34.30L2.45-30.82L2.45-3.38L5.83 0ZM39.54 0L56.69 0L66.93-10.24L66.93-34.30L60.12-34.30L60.12-20.53L49.83-20.53L43.02-27.39L43.02-34.30L36.16-34.30L36.16-23.96L46.40-13.67L60.12-13.67L53.26-6.86L39.54-6.86ZM78.20 0L78.20-27.44L95.31-27.44L95.31 0L102.12 0L102.12-34.30L71.34-34.30L71.34 0ZM136.12 0L136.12-6.86L113.88-6.86L113.88-13.67L134.41-13.67L134.41-20.53L113.88-20.53L113.88-27.44L136.12-27.44L136.12-34.30L107.02-34.30L107.02 0ZM147.39-17.10L147.39-27.44L164.49-27.44L164.49-17.10ZM147.39 0L147.39-10.24L167.92-10.24L171.30-13.67L171.30-30.82L167.92-34.30L140.53-34.30L140.53 0ZM182.57 0L182.57-27.44L199.68-27.44L199.68 0L206.49 0L206.49-34.30L175.71-34.30L175.71 0ZM218.25-6.86L218.25-27.44L235.35-27.44L235.35-6.86ZM238.78 0L242.16-3.38L242.16-30.82L238.78-34.30L214.77-34.30L211.39-30.82L211.39-3.38L214.77 0ZM253.43 0L253.43-20.58L260.24-27.44L270.53-27.44L270.53 0L277.34 0L277.34-34.30L256.81-34.30L246.57-24.01L246.57 0Z" fill="#000000" transform="matrix(1,0,0,1,119.55,265.65)" class="lo-name"></path></svg>